#!OML:ASF F:\VICON\USERDATA\INSTALL\rory3\rory3.ASF
:FULLY-SPECIFIED
:DEGREES
30
root 0.518171086056946 17.91981146232592 -0.8508265465564904 -0.5040204474294097 4.548964615961058 2.879142228928201
lfemur 10.728708173377594 -0.3094124771109982 -27.56997549137141
ltibia 13.752063780440274
lfoot -12.335544146924713 -3.85259746343073
ltoes 0.04021292013466038
rfemur -27.784176735966703 8.653555325418958 15.335102080547054
rtibia 18.865959383761258
rfoot -11.80390215867739 -16.050829657310167
rtoes -0.6749472869490845
lowerback nan -1.3994817214754436 -4.803421219389751
upperback 0.6629613757309231 -2.3181853871221048 1.4516436927157241
thorax -5.302539164434506 -1.1416522291352278 3.980812760656974
lowerneck -15.946069495783316 -2.929552747683232 -2.455768878727214
upperneck 20.26130578372386 -3.700249411004431 0.675495704665485
head 9.38828199837192 -1.8122617287460885 -0.09719607037256293
lclavicle -5.228900638836828e-15 -1.4209852168675814e-15
lhumerus -25.204081652875118 -2.900071737272055 81.99332811441207
lradius 29.49291712585669
lwrist 7.702351052571583
lhand -28.37212963310227 25.56186308928559
lfingers nan
lthumb -1.742835515334781 55.953049666319316
rclavicle 1.5704503774703089e-15 4.796953959748234e-15
rhumerus -34.37462537058573 -25.003902590609712 -73.28592022894829
rradius 25.51864058037092
rwrist 4.961500202951341
rhand -19.016823242332983 nan
rfingers nan
rthumb 7.484234959760096 -6.508413138787156
31
root 0.4494754167739444 17.84637812304335 0.2273807566213879 -0.3419800707528773 4.665684906533545 2.9104252154477197
lfemur 12.21478544161764 -2.013841701619994 -26.78690287402886
ltibia 15.984192903658396
lfoot -12.5050532872035 -4.386336302789092
ltoes -6.290571226987389
rfemur -28.29501997562195 5.521313474874442 17.57837653947718
rtibia 18.739126185526075
rfoot -10.941041742970212 -13.88971118685101
rtoes -2.3710147768848
lowerback nan -1.4377862909825303 -4.732671925401826
upperback 0.6011064886284583 -2.3210081644102143 1.6722991134061242
thorax -5.679410127546873 -1.1224435225549851 4.246125071267567
lowerneck -15.936424888908821 -3.11077333869925 -2.327507863469389
upperneck 20.332025968275307 -3.854992823207032 0.910597018963311
head 9.25834460893082 -1.7373329867956675 -0.122846122355458
lclavicle -4.7860032715789945e-15 4.001754883001758e-15
lhumerus -23.830738163667604 -3.9456512102156904 82.19016987409883
lradius 30.55504715621725
lwrist 8.41217745735356
lhand -27.850065517855125 24.534601944171104
lfingers nan
lthumb -1.6019140208982527 53.29005280956394
rclavicle -5.927852145571046e-15 5.558083864031252e-15
rhumerus -34.52281936595821 -25.611549836161256 -72.88865677440751
rradius 24.449120111715548
rwrist 7.008015071669368
rhand -19.045862424614118 nan
rfingers nan
rthumb 7.080418465360544 -6.753333005880179
32
root 0.3678070312509545 17.79166569291006 0.4818002303132616 -0.42252187626626503 4.362284278869783 2.556418760803789
lfemur 14.116145572986174 -2.9583855788248936 -26.111944091626768
ltibia 18.95860632829153
lfoot -12.925325418106311 -4.52405850167096
ltoes -12.276094465873372
rfemur -29.43615736147752 2.9439785959809996 20.746923909132704
rtibia 25.378928742338168
rfoot -8.048728967845362 -11.51936591879021
rtoes -6.487422319026966
lowerback nan -1.3481533082854582 -4.365505058278204
upperback 0.7827488911076821 -2.120137758657582 1.8471949846245257
thorax -5.327403044951587 -1.0925767736099992 4.293084951262037
lowerneck -16.1463627459905 -3.137063215508842 -2.426978049669083
upperneck 20.429797848345085 -4.0401026775592355 0.907002067708902
head 9.284274419909801 -1.8000639500194497 -0.23708518878553367
lclavicle -9.58620919780307e-15 3.4649001198301866e-15
lhumerus -23.37388752816147 -4.969119921994293 82.2294151376208
lradius 31.01882807168495
lwrist 8.606363364214907
lhand -28.74357543357369 23.75660778937856
lfingers nan
lthumb -2.67226508867834 51.80784893710878
rclavicle -9.376723368335294e-15 4.026443820460842e-15
rhumerus -35.2938268558742 -26.970117629907925 -71.6744608341345
rradius 22.679364599325634
rwrist 10.680187315032004
rhand -18.9685296548494 nan
rfingers nan
rthumb 7.213750179132342 -7.335370760912912
33
root 0.3101594437678537 17.784833296621308 1.8277460189151977 -0.5735341333482127 4.172530142931161 1.9077612020814265
lfemur 14.119919232223324 -5.077971500280638 -24.731423322058685
ltibia 24.182253680198766
lfoot -10.669595049198445 -5.351790260645643
ltoes -18.1189139905204
rfemur -27.887937758878326 5.103287582875025 21.849786221492877
rtibia 31.55457484042752
rfoot -6.119370418942909 -9.654484976465342
rtoes -7.372116734430084
lowerback nan -1.2027978321678874 -3.17961662719847
upperback 0.6539774350771452 -1.9013631779419817 2.2373835700699365
thorax -5.557990525538348 -0.9465118053259387 4.152753844154905
lowerneck -15.757598189787977 -3.0670539344406924 -2.33388429803781
upperneck 20.620682581809394 -3.7254662857011835 0.8553709952822164
head 9.2728158156547 -1.7515999411200536 -0.3643911948894088
lclavicle -4.18919153510841e-15 -2.2611157443186024e-15
lhumerus -23.546379551640875 -4.862505306239292 82.48691933112107
lradius 31.711537897646068
lwrist 8.799030724770653
lhand -30.254934976959035 21.423180304209684
lfingers nan
lthumb -3.3490173688072367 51.361795257821804
rclavicle 3.2220201781017362e-15 5.111172299728e-15
rhumerus -36.46274395329203 -28.243105272302557 -70.08604804655994
rradius 19.888757872762362
rwrist 16.705260718390864
rhand -18.787139547782317 nan
rfingers nan
rthumb 7.494810663678396 -6.565124672884987
34
root 0.28637360519252386 17.80414921118897 3.13827258730816 -0.807298735125553 3.501895110863054 0.927240646892415
lfemur 12.785514164855602 -5.810745827600906 -23.88316735278498
ltibia 32.96147652085792
lfoot -5.441493885094751 -7.178318255475315
ltoes -18.995258209399715
rfemur -27.039758667436764 4.439149495737363 23.45334609743248
rtibia 35.92546380724825
rfoot -3.686739548122902 -6.079843118627468
rtoes -1.0564925992910554
lowerback nan -1.0917146328752614 -2.405307561026538
upperback 0.5047972765109537 -1.9097828323525248 2.4569657989282523
thorax -4.90196510844815 -1.0470883970044216 4.11011969236486
lowerneck -15.95301314738229 -2.9514656539228903 -2.293012596909552
upperneck 21.08897068927271 -3.1823137920427986 0.7121456416932528
head 9.269251368346103 -1.6729198732440296 -0.39321302217747467
lclavicle -5.000575411541873e-15 -2.1044271070823836e-15
lhumerus -24.00458301526821 -4.15293773441995 82.63115956689244
lradius 31.776358952361754
lwrist 8.662600231281528
lhand -29.9510646866692 22.41699887828315
lfingers nan
lthumb -3.4470859486931964 51.7093941532144
rclavicle -4.362044543796265e-15 -4.889363246639752e-15
rhumerus -36.63651833790151 -30.33517408550923 -68.36909888824297
rradius 18.356663002838506
rwrist 19.488721947321043
rhand -18.770007989577856 nan
rfingers nan
rthumb 7.842296959719893 -6.643685896492902
